<?xml version="1.0" encoding="UTF-8" standalone="no"?>
<!-- Created with Inkscape (http://www.inkscape.org/) -->

<svg
   xmlns:dc="http://purl.org/dc/elements/1.1/"
   xmlns:cc="http://creativecommons.org/ns#"
   xmlns:rdf="http://www.w3.org/1999/02/22-rdf-syntax-ns#"
   xmlns:svg="http://www.w3.org/2000/svg"
   xmlns="http://www.w3.org/2000/svg"
   xmlns:sodipodi="http://sodipodi.sourceforge.net/DTD/sodipodi-0.dtd"
   xmlns:inkscape="http://www.inkscape.org/namespaces/inkscape"
   width="458"
   height="214"
   id="svg3561"
   version="1.1"
   inkscape:version="0.48.3.1 r9886"
   sodipodi:docname="barcelona2014.svg">
  <defs
     id="defs3563" />
  <sodipodi:namedview
     id="base"
     pagecolor="#ffffff"
     bordercolor="#666666"
     borderopacity="1.0"
     inkscape:pageopacity="0.0"
     inkscape:pageshadow="2"
     inkscape:zoom="1.4"
     inkscape:cx="291.03226"
     inkscape:cy="69.052418"
     inkscape:document-units="px"
     inkscape:current-layer="layer1"
     showgrid="false"
     inkscape:window-width="934"
     inkscape:window-height="878"
     inkscape:window-x="442"
     inkscape:window-y="114"
     inkscape:window-maximized="0"
     fit-margin-top="0"
     fit-margin-left="0"
     fit-margin-right="0"
     fit-margin-bottom="0" />
  <metadata
     id="metadata3566">
    <rdf:RDF>
      <cc:Work
         rdf:about="">
        <dc:format>image/svg+xml</dc:format>
        <dc:type
           rdf:resource="http://purl.org/dc/dcmitype/StillImage" />
        <dc:title></dc:title>
      </cc:Work>
    </rdf:RDF>
  </metadata>
  <g
     inkscape:label="Layer 1"
     inkscape:groupmode="layer"
     id="layer1"
     transform="translate(291.39459,-958.84311)">
    <g
       id="g1979-0-7-6-7"
       transform="matrix(255.10145,0,0,255.10145,-346.55049,989.64562)">
      <path
         d="m 0.52322562,0.34578664 -5.9028e-4,1.736e-5 -5.3819e-4,1.736e-5 -4.8611e-4,1.736e-5 -4.6874e-4,3.472e-5 -4.1667e-4,5.209e-5 -3.8194e-4,5.208e-5 -3.2986e-4,6.944e-5 -3.1249e-4,6.945e-5 -2.7778e-4,8.68e-5 -2.2569e-4,8.681e-5 -1.9098e-4,8.68e-5 -1.736e-4,1.0417e-4 -1.2153e-4,1.2152e-4 -1.0417e-4,1.0417e-4 -5.208e-5,1.3889e-4 -3.472e-5,1.2153e-4 0,1.3888e-4 3.472e-5,1.3889e-4 5.208e-5,1.3889e-4 8.681e-5,1.5625e-4 1.2152e-4,1.5625e-4 1.5625e-4,1.5625e-4 1.7361e-4,1.7361e-4 1.9097e-4,1.5625e-4 2.257e-4,1.736e-4 2.6041e-4,1.7362e-4 2.7778e-4,1.7361e-4 2.9514e-4,1.9097e-4 3.2985e-4,1.7361e-4 3.4722e-4,1.9097e-4 3.8195e-4,1.7361e-4 3.8194e-4,1.9097e-4 4.1666e-4,1.9097e-4 4.3403e-4,1.9097e-4 4.5138e-4,1.7361e-4 4.8611e-4,1.9097e-4 4.8611e-4,1.9097e-4 5.0347e-4,1.9097e-4 5.3819e-4,1.7361e-4 5.3819e-4,1.9097e-4 5.5555e-4,1.7361e-4 5.7291e-4,1.9097e-4 0.001198,3.4722e-4 0.00125,3.4723e-4 0.001285,3.2985e-4 0.001337,2.9514e-4 0.001372,2.9514e-4 0.001406,2.7777e-4 0.001441,2.4306e-4 0.001458,2.2569e-4 0.001476,1.9097e-4 0.001493,1.7361e-4 0.001493,1.2153e-4 c 0.004323,-0.00342 0.008281,-0.006858 0.0118055,-0.0107291 -0.01,0.002153 -0.020104,0.003212 -0.0306074,0.002187 z"
         style="font-style:normal;font-variant:normal;font-weight:normal;font-stretch:normal;letter-spacing:normal;word-spacing:normal;text-anchor:start;fill:#db0069;fill-opacity:1;fill-rule:nonzero;stroke:#db0069;stroke-width:0;stroke-linecap:butt;stroke-linejoin:miter;stroke-miterlimit:10.43299961;stroke-opacity:1;stroke-dasharray:none;stroke-dashoffset:0"
         id="path12-5-6-7-3"
         inkscape:connector-curvature="0" />
      <path
         d="m 0.59048213,0.33135965 0.00151,-0.001719 0.001476,-0.001753 0.001389,-0.001788 0.001354,-0.001823 0.001302,-0.00184 0.001233,-0.001858 0.001181,-0.001875 0.001128,-0.00191 0.001076,-0.001927 0.001024,-0.001927 9.7222e-4,-0.001962 9.0277e-4,-0.001962 8.6805e-4,-0.001979 8.1597e-4,-0.001979 7.8124e-4,-0.001979 7.118e-4,-0.001997 c -0.003246,0.007274 -0.007552,0.0142707 -0.0128645,0.0206596 -0.0242186,0.0119096 -0.002083,-0.009167 0.001319,-0.017361 -0.0278818,0.0279686 -0.00474,0.0182985 -0.006181,0.026979 z"
         style="font-style:normal;font-variant:normal;font-weight:normal;font-stretch:normal;letter-spacing:normal;word-spacing:normal;text-anchor:start;fill:#db0069;fill-opacity:1;fill-rule:nonzero;stroke:#db0069;stroke-width:0;stroke-linecap:butt;stroke-linejoin:miter;stroke-miterlimit:10.43299961;stroke-opacity:1;stroke-dasharray:none;stroke-dashoffset:0"
         id="path14-5-5-3-2"
         inkscape:connector-curvature="0" />
      <path
         d="m 0.6245965,0.27373849 1.7361e-4,-4.6875e-4 1.5625e-4,-4.6875e-4 1.5625e-4,-4.5138e-4 1.5624e-4,-4.5139e-4 1.3889e-4,-4.3402e-4 1.3889e-4,-4.1667e-4 1.3889e-4,-4.1666e-4 1.2152e-4,-4.1667e-4 1.2153e-4,-3.993e-4 1.2153e-4,-3.8194e-4 1.0416e-4,-3.993e-4 1.2153e-4,-3.6458e-4 8.681e-5,-3.6459e-4 1.0416e-4,-3.6458e-4 8.681e-5,-3.4722e-4 8.68e-5,-3.4722e-4 8.681e-5,-3.2986e-4 8.68e-5,-3.2986e-4 6.945e-5,-3.1249e-4 6.944e-5,-3.125e-4 5.208e-5,-3.125e-4 6.945e-5,-2.9514e-4 5.208e-5,-2.7777e-4 5.208e-5,-2.7778e-4 5.209e-5,-2.7777e-4 3.472e-5,-2.6042e-4 3.472e-5,-2.6041e-4 3.472e-5,-2.6042e-4 3.473e-5,-2.4305e-4 1.736e-5,-2.257e-4 1.736e-5,-2.2569e-4 1.736e-5,-2.2569e-4 1.736e-5,-2.2569e-4 1.736e-5,-1.9098e-4 0,-2.0833e-4 0,-1.9097e-4 0,-1.9097e-4 0,-1.7361e-4 0,-1.7361e-4 -1.736e-5,-1.7361e-4 -1.736e-5,-1.5625e-4 -1.736e-5,-1.5625e-4 -1.736e-5,-1.3889e-4 -3.473e-5,-1.3888e-4 -5.208e-5,-2.7778e-4 -6.944e-5,-2.2569e-4 -8.681e-5,-2.0834e-4 -8.68e-5,-1.9097e-4 -1.0417e-4,-1.7361e-4 -1.2153e-4,-1.3888e-4 -1.2152e-4,-1.2153e-4 -1.3889e-4,-1.0417e-4 -1.3889e-4,-6.944e-5 -1.5625e-4,-5.208e-5 -1.5625e-4,-3.473e-5 -1.5625e-4,-1.736e-5 -1.7361e-4,0 -1.7361e-4,1.736e-5 -1.9097e-4,5.209e-5 -1.9097e-4,5.208e-5 -1.9097e-4,8.681e-5 -2.0833e-4,8.68e-5 -1.9097e-4,1.0417e-4 -2.0833e-4,1.3888e-4 -2.0834e-4,1.3889e-4 -2.0833e-4,1.5625e-4 -2.2569e-4,1.7361e-4 -2.0833e-4,1.9097e-4 -2.0834e-4,1.9097e-4 -2.2569e-4,2.0833e-4 -2.0833e-4,2.257e-4 -2.2569e-4,2.4305e-4 -2.0834e-4,2.6042e-4 -2.2569e-4,2.6041e-4 -2.0833e-4,2.6042e-4 -2.0833e-4,2.7777e-4 -2.0833e-4,2.9514e-4 -2.0834e-4,3.125e-4 -1.9097e-4,2.9513e-4 -2.0833e-4,3.2986e-4 -1.9097e-4,3.2986e-4 -1.7361e-4,3.2986e-4 -1.9097e-4,3.2986e-4 -1.7361e-4,3.4722e-4 -1.7361e-4,3.6458e-4 -1.5625e-4,3.4722e-4 c 0.002014,0.00191 -2.6041e-4,0.0158853 0.004635,0.008246 z"
         style="font-style:normal;font-variant:normal;font-weight:normal;font-stretch:normal;letter-spacing:normal;word-spacing:normal;text-anchor:start;fill:#db0069;fill-opacity:1;fill-rule:nonzero;stroke:#db0069;stroke-width:0;stroke-linecap:butt;stroke-linejoin:miter;stroke-miterlimit:10.43299961;stroke-opacity:1;stroke-dasharray:none;stroke-dashoffset:0"
         id="path16-5-6-4-0"
         inkscape:connector-curvature="0" />
      <path
         d="m 0.67973503,-0.04627683 8.8541e-4,9.0278e-4 9.0278e-4,9.2013e-4 8.6805e-4,9.2013e-4 8.6805e-4,9.2014e-4 4.1666e-4,4.5138e-4 4.1666e-4,4.5139e-4 3.9931e-4,4.3402e-4 3.8194e-4,4.3403e-4 3.8194e-4,4.3402e-4 3.4722e-4,4.1667e-4 3.4722e-4,4.1666e-4 3.2986e-4,3.993e-4 2.9514e-4,3.8194e-4 2.9513e-4,3.8195e-4 2.6042e-4,3.6458e-4 2.2569e-4,3.2986e-4 2.0833e-4,3.2986e-4 1.9097e-4,3.1249e-4 1.5625e-4,2.9514e-4 1.2153e-4,2.7778e-4 1.0417e-4,2.4305e-4 6.944e-5,2.2569e-4 1.736e-5,1.2153e-4 0,8.681e-5 0,1.0416e-4 0,8.681e-5 -1.736e-5,8.68e-5 -3.472e-5,6.945e-5 -3.472e-5,6.944e-5 -3.472e-5,5.208e-5 -5.209e-5,6.945e-5 -6.944e-5,3.472e-5 -8.681e-5,5.208e-5 -8.68e-5,3.472e-5 c 0.006371,0.0037673 0.009271,0.0028819 -0.008073,-0.01111104 z"
         style="font-style:normal;font-variant:normal;font-weight:normal;font-stretch:normal;letter-spacing:normal;word-spacing:normal;text-anchor:start;fill:#db0069;fill-opacity:1;fill-rule:nonzero;stroke:#db0069;stroke-width:0;stroke-linecap:butt;stroke-linejoin:miter;stroke-miterlimit:10.43299961;stroke-opacity:1;stroke-dasharray:none;stroke-dashoffset:0"
         id="path18-8-8-2-0"
         inkscape:connector-curvature="0" />
      <polygon
         transform="matrix(0.0017361,0,0,-0.0017361,-0.03125,1.1875)"
         points="414.18,704.26 414.18,704.26 411.75,705.57 413.83,704.12 "
         style="font-style:normal;font-variant:normal;font-weight:normal;font-stretch:normal;letter-spacing:normal;word-spacing:normal;text-anchor:start;fill:#db0069;fill-opacity:1;fill-rule:nonzero;stroke:#db0069;stroke-width:0;stroke-linecap:butt;stroke-linejoin:miter;stroke-miterlimit:10.43299961;stroke-opacity:1;stroke-dasharray:none;stroke-dashoffset:0"
         id="polygon20-8-95-4-9" />
      <path
         d="m 0.65751295,0.34076931 -8.5069e-4,0.001597 -8.3332e-4,0.001528 -8.5069e-4,0.001458 -8.6805e-4,0.001389 -8.6805e-4,0.001337 -8.6805e-4,0.001285 -8.8541e-4,0.001233 -9.0278e-4,0.001181 -8.8541e-4,0.001128 -9.2013e-4,0.001094 -9.2013e-4,0.001042 -9.375e-4,0.001024 -0.001892,0.001944 -0.001927,0.001823 -0.001997,0.001753 -0.002031,0.001719 -0.002101,0.001684 -0.002135,0.001684 -0.002205,0.001719 -0.002257,0.001771 -0.002344,0.001875 -0.001181,9.5485e-4 -0.001198,0.001007 c -0.003958,-2.6041e-4 -0.007656,-3.4722e-4 -0.011684,-0.001562 -0.0147742,0.009271 -0.003837,0.009549 -0.0149825,0.0178124 -0.0167534,0.002431 -0.0528469,0.008698 -0.0622739,0.006701 -0.005677,-0.003663 0.007691,-0.004479 0.0104687,-0.006389 -0.0226388,0.001389 -0.0223783,0.009705 -0.0484545,0.002049 l 2.6041e-4,-0.002049 C 0.43140329,0.38505722 0.3815425,0.27505792 0.42303529,0.20761044 c -0.003212,0.004045 -0.003837,0.00217 -0.006285,0.003125 0.0189582,-0.0360414 0.0631767,-0.0654163 0.10616252,-0.0653121 0.0436976,-9.8958e-4 0.0840099,0.024045 0.10142296,0.0585066 -0.007031,-0.0243401 -0.0281769,-0.0557462 -0.0626385,-0.0692183 -0.0334373,-0.0145659 -0.0737842,-0.008125 -0.0946175,0.008958 -0.0205033,0.003368 -0.0407115,0.0280033 -0.0501559,0.0296873 -0.0507809,0.0601211 -0.036215,0.10572849 -0.0131944,0.16768989 0.003385,0.009566 -0.002014,0.00684 -0.00375,0.0111458 -0.0103124,-0.0167013 -0.0178471,-0.0354685 -0.0215103,-0.0551906 2.2569e-4,0.0122742 0.002882,0.0244964 0.006024,0.0364755 -0.00967,-0.0139583 -0.0136284,-0.0538017 -0.0182638,-0.0585066 0.0025,0.0557635 0.0495483,0.13913105 0.10065908,0.14727336 -0.0187325,-0.0101041 -0.0406595,-0.0263193 -0.0554163,-0.0470483 -0.005573,-0.009861 -0.011111,-0.0261457 -0.007674,-0.0265797 0.0410761,0.0549823 0.0946522,0.0836106 0.16513783,0.0737148 0.0173436,-0.001198 0.0387498,-0.009288 0.0430379,-0.006128 -0.0105902,0.004288 -0.001285,0.00467 -0.01,0.008941 0.0231075,-0.010052 -0.001302,-0.0120138 0.0304859,-0.0247915 l 0.001858,0.0127603 c 0.006042,-0.01717 0.0394095,-0.0224651 0.050833,-0.0488018 0.009444,-0.004531 0.001944,0.0122395 -0.0137152,0.0259373 0.0191318,-0.0141492 0.0138541,-0.0219096 0.0258852,-0.0355206 l -0.003056,0.0203124 c 0.005677,-0.0213888 0.0227603,-0.0282116 0.0325345,-0.0367706 -0.001771,-0.002517 -0.0133506,0.003073 -0.001493,-0.0192533 0.006076,-0.009167 0.006007,-0.003073 0.008507,-0.00474 -0.001424,-0.002274 -0.002361,-0.0127082 0.003281,-0.0282811 0.004444,-0.001701 9.3749e-4,0.0122048 0.003872,0.0146527 0.004705,-0.0120659 0.007517,-0.0221006 0.0126388,-0.0303991 0.003576,-0.0227256 -0.005295,0 -0.005122,-0.0142534 0.009826,-0.0332116 0.0127256,-6.0764e-4 0.0227255,-0.0117187 2.4306e-4,0.028038 -0.011111,0.0624649 -0.0148436,0.077378 0.006111,-0.0170485 0.0117881,-0.0341317 0.0153298,-0.0516316 0.003663,0.004583 0.0157291,-0.0338366 0.012986,-0.004861 0.017361,-0.0522913 0.0167707,-0.12098881 -0.002778,-0.1733843 5.7291e-4,0.0079861 0.002083,0.01779502 -8.3333e-4,0.01678808 -0.00875,-0.026354 -0.004844,-0.02418387 -0.003472,-0.0309373 C 0.76777266,0.05905236 0.7610366,0.06485094 0.75129707,0.05632668 0.73608884,0.01844498 0.72950902,0.01599708 0.71214802,-0.01532216 l -0.003628,0.00654509 c -0.0135589,-0.02126722 -0.0230901,-0.01605892 -0.0414581,-0.03458311 -2.7777e-4,-0.002118 0.008906,0.0023611 0.0165277,0.0059201 -0.0203818,-0.01185756 -0.0136631,-0.01840266 -0.0352949,-0.02793385 l 0.0201908,0.0029687 c -0.0160246,-0.01038184 -0.0419446,-0.02079844 -0.030278,-0.02218732 -0.0326734,-0.0090104 -0.0888883,-0.0284026 -0.13137069,-0.02210056 l 0.002743,-0.006111 c -0.021545,0.005295 -0.0805724,0.0101041 -0.0937841,0.02637136 l -0.003802,-0.0013715 c -0.0116319,0.0084201 -0.0235068,0.01548601 -0.0338192,0.02505192 -0.0164582,0.0083507 -0.0158332,-0.0026389 -0.0157985,2.9514e-4 -0.0347914,0.02293388 -0.0573087,0.04644068 -0.0769613,0.06479125 0.001319,0.01010411 -0.0223957,0.04555527 -0.0344269,0.0770134 -0.0770481,0.14753378 0.0108506,0.36003242 0.15881843,0.39602177 0.0201561,0.007656 0.0519962,0.007274 0.0765967,0.005035 -0.0296526,-0.005608 -0.0341665,-0.002847 -0.0637496,-0.0123089 C 0.4014382,0.457713 0.39734101,0.44606377 0.38362582,0.43217497 l 0.005035,0.0108854 c -0.0292186,-0.0110242 -0.0162325,-0.0132291 -0.0394963,-0.0223957 l 0.007847,-0.008177 c -0.010677,1.736e-5 -0.0220658,-0.0188367 -0.0256248,-0.0265103 l -0.010677,-8.8541e-4 c -0.009115,-0.0170138 -0.0131423,-0.0287672 -0.0100694,-0.037031 l -0.005174,0.005191 c -0.002726,-0.006424 -0.0298609,-0.065017 -0.010868,-0.0485066 -0.003056,-0.004462 -0.007986,-0.008003 -0.0107291,-0.0194617 l 0.006319,-0.003594 c -0.006406,-0.0153818 -0.0100867,-0.0344442 -0.007431,-0.0396178 0.003403,0.008715 0.007031,0.0111284 0.0106423,0.0134201 -0.007448,-0.0679857 -0.0283852,-0.011302 -0.0282811,-0.0756072 l 0.004531,0.001146 c -0.001215,-0.005503 -0.002465,-0.0111284 -0.002986,-0.0167534 l 0.008628,-0.0157464 c -0.0121874,-0.0277429 0.0298609,-0.08503417 0.0502601,-0.11701314 0.009167,-0.01272561 0.0295658,-0.02062486 0.0519441,-0.03746503 l -0.005625,-0.00475692 c 0.0211978,-0.01187492 0.10609307,-0.03829836 0.12491239,-0.01795127 0.0184027,-0.007309 -0.001997,-0.0013542 -0.002118,-0.0069618 0.0381248,-0.00875 0.0409546,0.0048264 0.0585066,0.01265617 0.0233853,0.0022396 -0.0165971,-0.0069965 -0.003351,-0.009184 0.0331942,0.01484365 0.0324998,-0.001441 0.0719093,0.02524289 0.001806,0.00588538 -0.0117013,-0.00404511 -0.0171874,-0.0037847 0.0328991,0.00744787 0.0804335,0.05289897 0.10105838,0.0954855 0.0227255,0.04565943 0.0154339,0.13673524 -0.0155207,0.19423487 l 0.001962,0.002066 c -0.0159721,0.0217013 -0.0246179,0.0492879 -0.0465448,0.067378 0.004392,-0.001806 0.008038,-0.004913 0.0120138,-0.007708 z"
         style="font-style:normal;font-variant:normal;font-weight:normal;font-stretch:normal;letter-spacing:normal;word-spacing:normal;text-anchor:start;fill:#db0069;fill-opacity:1;fill-rule:nonzero;stroke:#db0069;stroke-width:0;stroke-linecap:butt;stroke-linejoin:miter;stroke-miterlimit:10.43299961;stroke-opacity:1;stroke-dasharray:none;stroke-dashoffset:0"
         id="path22-7-8-5-0"
         inkscape:connector-curvature="0" />
      <path
         d="m 0.35893847,0.25639485 -8.6805e-4,7.4652e-4 -8.6804e-4,7.8125e-4 -8.6805e-4,7.8124e-4 -8.5069e-4,7.8125e-4 -8.3333e-4,7.8124e-4 -4.1667e-4,3.993e-4 -3.993e-4,3.9931e-4 -3.8194e-4,4.1666e-4 -3.8194e-4,3.993e-4 -3.8195e-4,3.9931e-4 -3.6458e-4,4.1666e-4 c 0.001007,0.0133506 0.002552,0.0263714 0.006146,0.0389407 0.002604,-0.0160242 -0.002066,-0.023663 4.6874e-4,-0.0452428 z"
         style="font-style:normal;font-variant:normal;font-weight:normal;font-stretch:normal;letter-spacing:normal;word-spacing:normal;text-anchor:start;fill:#db0069;fill-opacity:1;fill-rule:nonzero;stroke:#db0069;stroke-width:0;stroke-linecap:butt;stroke-linejoin:miter;stroke-miterlimit:10.43299961;stroke-opacity:1;stroke-dasharray:none;stroke-dashoffset:0"
         id="path24-1-6-3-3"
         inkscape:connector-curvature="0" />
      <path
         d="m 0.37685503,0.2655441 -1.9097e-4,-0.001146 -1.5625e-4,-0.001146 -1.2153e-4,-0.001146 -8.681e-5,-0.001146 -6.944e-5,-0.001146 -5.208e-5,-0.001146 -1.736e-5,-0.001146 -1.736e-5,-0.001146 0,-0.002292 0,-0.002309 0,-0.001163 -1.736e-5,-0.001163 -3.473e-5,-0.001163 -5.208e-5,-0.001181 c -0.001684,0.009844 -0.002153,0.0197395 -0.001615,0.02967 l 0.002431,-0.0112326 z"
         style="font-style:normal;font-variant:normal;font-weight:normal;font-stretch:normal;letter-spacing:normal;word-spacing:normal;text-anchor:start;fill:#db0069;fill-opacity:1;fill-rule:nonzero;stroke:#db0069;stroke-width:0;stroke-linecap:butt;stroke-linejoin:miter;stroke-miterlimit:10.43299961;stroke-opacity:1;stroke-dasharray:none;stroke-dashoffset:0"
         id="path26-3-0-8-0"
         inkscape:connector-curvature="0" />
      <path
         d="m 0.69921407,0.3819496 -0.003681,0.002986 c -0.0144443,0.0178645 -0.0314408,0.0343921 -0.0517531,0.0468573 0.0218054,-0.0130034 0.0404685,-0.0302602 0.0554337,-0.0498434 z"
         style="font-style:normal;font-variant:normal;font-weight:normal;font-stretch:normal;letter-spacing:normal;word-spacing:normal;text-anchor:start;fill:#db0069;fill-opacity:1;fill-rule:nonzero;stroke:#db0069;stroke-width:0;stroke-linecap:butt;stroke-linejoin:miter;stroke-miterlimit:10.43299961;stroke-opacity:1;stroke-dasharray:none;stroke-dashoffset:0"
         id="path28-2-6-2-3"
         inkscape:connector-curvature="0" />
      <path
         d="m 0.68567249,-0.04955805 8.5069e-4,2.2569e-4 8.5069e-4,2.7777e-4 8.3333e-4,3.125e-4 8.3333e-4,3.4722e-4 8.3333e-4,3.9931e-4 8.1596e-4,4.1666e-4 8.1597e-4,4.3402e-4 8.1597e-4,4.8611e-4 7.986e-4,5.0347e-4 7.9861e-4,5.2083e-4 0.001597,0.0011111 0.00158,0.0011632 0.001562,0.0011979 0.001562,0.0012326 0.001545,0.0012326 0.001545,0.0012153 0.001545,0.0011806 0.001545,0.0011285 7.8124e-4,5.3819e-4 7.6389e-4,5.0347e-4 7.8124e-4,5.0347e-4 7.6389e-4,4.6874e-4 7.8124e-4,4.3403e-4 7.8125e-4,3.993e-4 c -0.009531,-0.0069791 -0.0186284,-0.01427074 -0.0288714,-0.01999987 l 0.00349,0.0037673 z"
         style="font-style:normal;font-variant:normal;font-weight:normal;font-stretch:normal;letter-spacing:normal;word-spacing:normal;text-anchor:start;fill:#db0069;fill-opacity:1;fill-rule:nonzero;stroke:#db0069;stroke-width:0;stroke-linecap:butt;stroke-linejoin:miter;stroke-miterlimit:10.43299961;stroke-opacity:1;stroke-dasharray:none;stroke-dashoffset:0"
         id="path30-3-2-7-5"
         inkscape:connector-curvature="0" />
      <path
         d="m 0.35508433,-0.09370708 -3.2986e-4,7.4652e-4 -3.4722e-4,7.2917e-4 -3.6458e-4,6.9444e-4 -3.6458e-4,6.5972e-4 -3.8194e-4,6.4235e-4 -3.8194e-4,6.25e-4 -3.9931e-4,5.9027e-4 -4.1666e-4,5.7291e-4 -3.993e-4,5.382e-4 -4.1667e-4,5.3819e-4 -4.3402e-4,5.0347e-4 -4.1667e-4,4.861e-4 -4.1666e-4,4.5139e-4 -4.3402e-4,4.3403e-4 -4.1667e-4,4.3402e-4 -4.3402e-4,3.993e-4 -4.1667e-4,3.6458e-4 -4.1666e-4,3.6459e-4 -4.1667e-4,3.4721e-4 -3.993e-4,3.2986e-4 -3.993e-4,2.9514e-4 -3.8194e-4,2.9514e-4 -3.8194e-4,2.6041e-4 -3.6459e-4,2.6042e-4 -3.6458e-4,2.4305e-4 -3.4722e-4,2.257e-4 -3.2986e-4,2.0833e-4 -3.1249e-4,1.9097e-4 -3.125e-4,1.7361e-4 -2.7778e-4,1.5625e-4 -2.6041e-4,1.5625e-4 -2.4306e-4,1.3888e-4 -2.2569e-4,1.2153e-4 -2.0833e-4,1.2153e-4 -1.9097e-4,8.68e-5 -1.5625e-4,8.681e-5 -1.2153e-4,8.68e-5 -1.2153e-4,6.945e-5 -6.944e-5,5.208e-5 -5.208e-5,5.208e-5 -3.472e-5,3.473e-5 1.736e-5,3.472e-5 3.472e-5,1.736e-5 6.944e-5,0 1.0417e-4,1.736e-5 1.3889e-4,0 1.7361e-4,-1.736e-5 2.0833e-4,-1.736e-5 2.6041e-4,-1.736e-5 1.3889e-4,-1.736e-5 1.3889e-4,-1.737e-5 1.5625e-4,-1.736e-5 1.7361e-4,-1.736e-5 1.7361e-4,-1.736e-5 1.9097e-4,-1.736e-5 2.0833e-4,-1.736e-5 2.0833e-4,-1.736e-5 2.257e-4,-1.736e-5 2.2569e-4,-3.472e-5 2.4305e-4,-1.737e-5 2.6042e-4,-1.736e-5 2.6041e-4,-3.472e-5 2.7778e-4,-1.736e-5 2.9514e-4,-3.472e-5 3.1249e-4,-1.736e-5 3.125e-4,-3.473e-5 3.125e-4,-3.472e-5 3.4722e-4,-1.736e-5 3.4722e-4,-3.472e-5 3.6458e-4,-3.472e-5 3.8194e-4,-1.736e-5 3.8194e-4,-3.472e-5 3.9931e-4,-3.473e-5 4.1666e-4,-1.736e-5 4.3403e-4,-3.472e-5 4.3402e-4,-3.472e-5 4.5139e-4,-3.472e-5 4.6874e-4,-1.736e-5 4.8611e-4,-3.473e-5 c 0.0181075,-0.01225686 -5.5555e-4,-0.0067708 0.003125,-0.01303811 z"
         style="font-style:normal;font-variant:normal;font-weight:normal;font-stretch:normal;letter-spacing:normal;word-spacing:normal;text-anchor:start;fill:#db0069;fill-opacity:1;fill-rule:nonzero;stroke:#db0069;stroke-width:0;stroke-linecap:butt;stroke-linejoin:miter;stroke-miterlimit:10.43299961;stroke-opacity:1;stroke-dasharray:none;stroke-dashoffset:0"
         id="path32-7-8-8-2"
         inkscape:connector-curvature="0" />
      <path
         d="m 0.29845275,-0.03197136 8.1597e-4,-7.9861e-4 7.986e-4,-7.6388e-4 7.8125e-4,-7.6389e-4 7.4652e-4,-7.2916e-4 7.2916e-4,-7.2916e-4 6.9444e-4,-6.9444e-4 6.9444e-4,-6.9444e-4 6.5972e-4,-6.5972e-4 6.5972e-4,-6.5972e-4 6.25e-4,-6.4235e-4 6.0763e-4,-6.25e-4 5.9027e-4,-6.25e-4 5.9028e-4,-6.0763e-4 5.5555e-4,-5.9027e-4 0.001076,-0.0011632 0.001007,-0.0011285 9.7222e-4,-0.0011111 9.2013e-4,-0.0010764 8.8541e-4,-0.0010764 8.5069e-4,-0.0010764 8.1597e-4,-0.001059 7.8124e-4,-0.0010764 7.6389e-4,-0.0010764 c -0.0157291,0.0069444 -0.0128124,0.01133673 -0.0176214,0.01942696 z"
         style="font-style:normal;font-variant:normal;font-weight:normal;font-stretch:normal;letter-spacing:normal;word-spacing:normal;text-anchor:start;fill:#db0069;fill-opacity:1;fill-rule:nonzero;stroke:#db0069;stroke-width:0;stroke-linecap:butt;stroke-linejoin:miter;stroke-miterlimit:10.43299961;stroke-opacity:1;stroke-dasharray:none;stroke-dashoffset:0"
         id="path34-3-1-6-5"
         inkscape:connector-curvature="0" />
      <path
         d="m 0.50563892,0.41644591 -0.001094,0.0538191 0.001094,0.0757981 -0.0790967,0.003299 c 0,0 -0.0258158,0.00276 -0.0357116,0.004948 -0.009878,0.002205 -0.0192186,0.008785 -0.0192186,0.008785 l 0.0428469,0.001649 -0.009878,0.004948 c 0,0 0.0340449,0.002743 0.0461282,0.006042 0.0120833,0.003299 0.048333,0.008785 0.0527254,0.008785 0.00441,0 -0.002743,0.006042 5.5555e-4,0.00934 0.003299,0.003299 0.005486,0.007691 0.005486,0.007691 l 0.001649,0.0494268 c 0,0 -5.5555e-4,0.0230728 0.001649,0.0285588 0.002205,0.005503 0.009896,0.0274651 0.009896,0.0274651 0,0 0.004392,-0.023611 0.004392,-0.0307463 0,-0.007153 5.3819e-4,-0.0258158 5.3819e-4,-0.0258158 0,0 0.007691,-0.00276 0.007691,-0.008246 0,-0.005486 0,-0.0170311 0,-0.0170311 l -0.004392,0.004392 0.005486,-0.0461282 c 0,0 0.0137499,-0.001111 0.0230901,0.002743 0.009323,0.003854 0.0192186,0.004392 0.0247047,0.004948 0.005503,5.5555e-4 -0.00934,-0.006597 -0.0164756,-0.00934 -0.007135,-0.002743 -0.0142881,-0.0109895 -0.0142881,-0.0109895 0,0 0.0225346,-5.5556e-4 0.0296699,0.002205 0.007135,0.002743 0.0203297,0.008785 0.0335067,0.008785 0.013177,0 0.0296699,-0.004948 0.0384372,0.001649 0.008802,0.006597 0.0148437,0.0126214 0.0148437,0.0126214 0,0 -0.0230554,-0.0285415 -0.0346005,-0.0346005 -0.0115451,-0.006042 -0.097239,-0.0137325 -0.097239,-0.0137325 l -5.3819e-4,-0.026354 0.007691,-0.001649 c 0,0 -0.006597,-0.0164756 -0.007153,-0.0252776 -5.3819e-4,-0.008785 0.004948,-0.0219617 0.004948,-0.0219617 0,0 -0.005486,-0.007153 -0.005486,-0.016493 0,-0.009323 0.001094,-0.039531 0.001094,-0.039531 l -0.0329512,0 z"
         style="font-style:normal;font-variant:normal;font-weight:normal;font-stretch:normal;letter-spacing:normal;word-spacing:normal;text-anchor:start;fill:#db0069;fill-opacity:1;fill-rule:nonzero;stroke:#db0069;stroke-width:0;stroke-linecap:butt;stroke-linejoin:miter;stroke-miterlimit:10.43299961;stroke-opacity:1;stroke-dasharray:none;stroke-dashoffset:0"
         id="path36-0-1-4-7"
         inkscape:connector-curvature="0" />
    </g>
    <g
       id="g3216-7-9-0"
       transform="matrix(3091.606,0,0,3091.606,-3529.245,-1095.293)">
      <path
         id="path2152-6-48-4-6"
         transform="scale(0.00138889,0.00138889)"
         d="m 804.78125,480.0625 c -0.9576,0.45464 -1.77935,0.74857 -3.59375,0.90625 0.7195,0.77544 0.71875,1.16742 0.71875,4.6875 -0.50818,-0.16315 -1.12435,-0.34375 -2.21875,-0.34375 -4.7736,0 -5.5625,4.15551 -5.5625,7.25 l 0,0.34375 0.0312,0.34375 0,0.3125 0.0312,0.34375 0.0312,0.28125 0,0.3125 0.0625,0.28125 0.0312,0.28125 0.0312,0.25 0.0625,0.25 0.0312,0.25 0.0625,0.25 0.0625,0.21875 0.0625,0.21875 0.0625,0.21875 0.0937,0.1875 0.0625,0.21875 0.0625,0.15625 0.0937,0.1875 0.0937,0.1875 0.0625,0.15625 0.0937,0.15625 0.0937,0.15625 0.0937,0.125 0.0937,0.125 0.0937,0.125 0.0937,0.125 0.0937,0.125 0.1875,0.21875 0.21875,0.1875 0.1875,0.15625 0.1875,0.15625 0.21875,0.125 0.1875,0.0937 0.21875,0.0937 0.1875,0.0625 0.15625,0.0625 0.1875,0.0625 0.15625,0.0312 0.15625,0.0312 0.15625,0.0312 0.125,0 0.125,0.0312 0.0937,0 0.0937,0 0.0625,0 c 1.656,0 2.7339,-0.89915 3.1875,-2.46875 l 0.0312,2.34375 c 0.50551,-0.0267 1.01575,-0.0625 1.84375,-0.0625 0.29426,0 0.5335,0.005 0.75,0.0312 0.21139,0 0.41807,0.005 0.65625,0.0312 -0.42516,-0.8532 -0.75,-2.7759 -0.75,-6.9375 0,-4.04928 -0.004,-10.88788 0.34375,-12.96875 z m -4.75,7.15625 c 0.9072,0 1.4093,0.25737 1.8125,0.46875 l 0,1.75 0,0.0312 0,0.0312 0,0.0312 0,0.0312 0,0.0625 0,0.0312 0,0.0625 0,0.0625 0,0.0625 0,0.0625 0,0.0625 0,0.15625 0,0.15625 0,0.1875 0,0.1875 0,0.21875 0,0.1875 0,0.21875 0,0.21875 0,0.21875 0,0.46875 -0.0312,0.46875 0,0.21875 0,0.25 0,0.21875 0,0.1875 0,0.21875 0,0.1875 0,0.1875 0,0.1875 -0.0312,0.15625 0,0.15625 0,0.0625 0,0.0625 0,0.0625 0,0.0625 c -0.0508,0.90432 -0.14154,2.84375 -2.0625,2.84375 -1.9728,0 -2.43535,-2.26576 -2.59375,-3.25 -0.1872,-1.09368 -0.1875,-2.00809 -0.1875,-2.40625 0,-1.28088 0.0852,-4.84375 3.09375,-4.84375 z"
         style="font-style:normal;font-variant:normal;font-weight:normal;font-stretch:normal;letter-spacing:normal;word-spacing:normal;text-anchor:start;fill:#000000;fill-opacity:1;fill-rule:nonzero;stroke:#000000;stroke-width:0;stroke-linecap:butt;stroke-linejoin:miter;stroke-miterlimit:10.43299961;stroke-opacity:1;stroke-dasharray:none;stroke-dashoffset:0"
         inkscape:connector-curvature="0" />
      <path
         id="path2154-8-15-8-6"
         transform="scale(0.00138889,0.00138889)"
         d="m 819.6875,480 c -1.728,0.79992 -2.7927,0.95594 -3.9375,1.0625 1.0368,0.42798 1.03125,2.17728 1.03125,7.90625 l 0,6.5625 0.0312,0 0,0.1875 0,0.15625 0,0.1875 0,0.15625 0,0.1875 -0.0312,0.15625 0,0.15625 0,0.125 0,0.15625 0,0.15625 0,0.125 0,0.125 0,0.15625 0,0.125 0,0.125 -0.0312,0.0937 0,0.125 0,0.125 -0.0312,0.0937 0,0.125 0,0.0937 -0.0312,0.0937 -0.0312,0.21875 -0.0312,0.1875 -0.0312,0.15625 -0.0625,0.1875 -0.0625,0.15625 c 1.0944,0.42798 2.47375,0.65625 4.09375,0.65625 1.0368,0 4.03625,0.0204 5.65625,-3.3125 0.7704,-1.54584 1.03125,-3.61502 1.03125,-5.1875 0,-0.9576 -0.10359,-3.07137 -0.875,-4.40625 -0.7488,-1.25208 -1.93715,-1.90625 -3.21875,-1.90625 -2.556,0 -3.2915,2.12507 -3.6875,3.21875 0,-1.35864 0.005,-6.10298 0.21875,-8.53125 z m 2.34375,7.75 c 2.0232,0 2.40625,2.79636 2.40625,4.875 l 0,0.21875 0,0.25 -0.0312,0.5 -0.0312,0.5 -0.0312,0.21875 -0.0312,0.25 -0.0312,0.25 -0.0312,0.25 -0.0625,0.25 -0.0625,0.25 -0.0625,0.21875 L 824,496 l -0.0625,0.25 -0.0937,0.21875 -0.0937,0.1875 -0.125,0.21875 -0.125,0.1875 -0.125,0.1875 -0.125,0.1875 -0.15625,0.15625 -0.15625,0.15625 -0.1875,0.125 -0.1875,0.125 -0.1875,0.0937 -0.0937,0.0625 -0.125,0.0625 -0.0937,0.0312 -0.125,0.0312 -0.125,0.0312 -0.0937,0.0312 -0.125,0.0312 -0.15625,0.0312 -0.125,0 -0.125,0.0312 -0.15625,0 -0.125,0 c -0.42797,0 -0.9669,-0.0787 -1.3125,-0.15625 -0.0535,-0.96048 -0.0625,-2.61317 -0.0625,-4.53125 0,-2.29464 0.25016,-3.50551 0.4375,-4.09375 0.55894,-1.89072 1.8249,-1.90625 2.0625,-1.90625 z"
         style="font-style:normal;font-variant:normal;font-weight:normal;font-stretch:normal;letter-spacing:normal;word-spacing:normal;text-anchor:start;fill:#000000;fill-opacity:1;fill-rule:nonzero;stroke:#000000;stroke-width:0;stroke-linecap:butt;stroke-linejoin:miter;stroke-miterlimit:10.43299961;stroke-opacity:1;stroke-dasharray:none;stroke-dashoffset:0"
         inkscape:connector-curvature="0" />
      <path
         id="path2158-2-5-3-7"
         transform="scale(0.00138889,0.00138889)"
         d="m 811.21875,485.28125 c -5.436,0 -5.4375,6.03148 -5.4375,7.3125 0,5.4108 2.4248,7.53125 6.5,7.53125 1.8144,0 2.7123,-0.24127 3.1875,-0.375 -0.024,-0.96048 0.0896,-1.58041 0.25,-2.40625 -0.56167,0.3451 -1.2766,0.8125 -2.875,0.8125 -4.1544,0 -4.21875,-3.81676 -4.21875,-5.125 l 7.09375,0 0.0625,-1.5625 0,-0.5625 -0.0312,-0.3125 0,-0.28125 -0.0312,-0.28125 -0.0312,-0.28125 -0.0312,-0.28125 -0.0312,-0.28125 -0.0625,-0.25 -0.0312,-0.28125 -0.0937,-0.25 -0.0625,-0.25 -0.0937,-0.25 -0.0937,-0.25 -0.0937,-0.21875 -0.125,-0.21875 -0.125,-0.21875 -0.125,-0.1875 -0.15625,-0.21875 -0.15625,-0.15625 -0.1875,-0.1875 -0.1875,-0.15625 -0.21875,-0.15625 -0.21875,-0.125 -0.21875,-0.125 -0.28125,-0.0937 -0.25,-0.0937 -0.15625,-0.0312 -0.125,-0.0312 -0.15625,-0.0312 -0.15625,-0.0312 -0.15625,-0.0312 -0.15625,-0.0312 -0.1875,0 -0.15625,0 -0.1875,-0.0312 -0.1875,0 z m -0.4375,1.75 0.1875,0 c 2.0808,0 2.2379,2.29678 2.1875,4.1875 l -4.5625,0 0,-0.40625 0,-0.21875 0.0312,-0.1875 0,-0.21875 0.0312,-0.1875 0.0312,-0.1875 0,-0.1875 0.0312,-0.1875 0.0312,-0.1875 0.0625,-0.15625 0.0312,-0.1875 0.0625,-0.15625 0.0312,-0.15625 0.0625,-0.15625 0.0625,-0.15625 0.0625,-0.125 0.0937,-0.15625 0.0625,-0.125 0.0937,-0.0937 0.0937,-0.125 0.0937,-0.0937 0.125,-0.0937 0.0937,-0.0937 0.125,-0.0937 0.125,-0.0625 0.125,-0.0625 0.15625,-0.0312 0.15625,-0.0625 0.15625,0 0.15625,-0.0312 z"
         style="font-style:normal;font-variant:normal;font-weight:normal;font-stretch:normal;letter-spacing:normal;word-spacing:normal;text-anchor:start;fill:#000000;fill-opacity:1;fill-rule:nonzero;stroke:#000000;stroke-width:0;stroke-linecap:butt;stroke-linejoin:miter;stroke-miterlimit:10.43299961;stroke-opacity:1;stroke-dasharray:none;stroke-dashoffset:0"
         inkscape:connector-curvature="0" />
      <path
         id="path2164-7-3-3-7"
         style="font-style:normal;font-variant:normal;font-weight:normal;font-stretch:normal;letter-spacing:normal;word-spacing:normal;text-anchor:start;fill:#000000;fill-opacity:1;fill-rule:nonzero;stroke:#000000;stroke-width:0;stroke-linecap:butt;stroke-linejoin:miter;stroke-miterlimit:10.43299961;stroke-opacity:1;stroke-dasharray:none;stroke-dashoffset:0"
         d="m 1.1561012,0.69441569 -1.374e-4,-2.228e-5 -1.337e-4,-1.858e-5 -1.263e-4,-1.857e-5 -1.301e-4,-1.858e-5 -1.263e-4,-1.485e-5 -1.263e-4,-1.487e-5 -1.3e-4,-1.485e-5 -1.3e-4,-1.115e-5 -1.375e-4,-1.114e-5 -1.411e-4,-1.115e-5 -7.06e-5,-3.71e-6 -7.8e-5,-3.72e-6 -7.43e-5,-3.71e-6 -7.8e-5,-3.72e-6 -8.18e-5,-3.71e-6 -8.17e-5,-3.72e-6 -8.54e-5,-3.71e-6 -8.55e-5,0 -9.28e-5,0 -9.29e-5,-3.72e-6 -9.29e-5,0 -1.003e-4,0 c -0.00118,0 -0.002,7.43e-5 -0.00285,1.8574e-4 3.639e-4,-7.059e-4 5.127e-4,-0.00104 6.241e-4,-0.003444 1.486e-4,-0.003295 1.895e-4,-0.0121066 -7.43e-5,-0.0139566 -1.857e-4,-0.001404 -5.163e-4,-0.001627 -0.00103,-0.001999 0.00304,-2.9721e-4 0.00389,-5.1632e-4 0.00529,-0.001185 -2.936e-4,0.001631 -3.306e-4,0.002448 -3.306e-4,0.004922 -7.43e-5,0.0127753 -1.114e-4,0.0141423 7.021e-4,0.0156617 z"
         inkscape:connector-curvature="0" />
      <path
         id="path2166-0-0-7-1"
         transform="scale(0.00138889,0.00138889)"
         d="m 839,485.3125 c -2.6352,0 -4.1671,0.81771 -4.9375,1.21875 0.3209,0.58575 0.58008,1.07179 0.8125,2.21875 1.0368,-0.90648 2.39165,-1.375 3.78125,-1.375 2.2104,0 2.21875,1.45549 2.21875,3.53125 -0.50551,-0.0241 -0.93625,-0.0625 -1.65625,-0.0625 -3.384,0 -5.625,1.30164 -5.625,4.875 l 0,0.3125 0.0312,0.3125 0,0.15625 0.0312,0.15625 0.0312,0.15625 0,0.15625 0.0312,0.125 0.0312,0.15625 0.0625,0.15625 0.0312,0.15625 0.0312,0.125 0.0625,0.15625 0.0312,0.125 0.0625,0.15625 0.0625,0.125 0.0625,0.125 0.0625,0.125 0.0937,0.125 0.0625,0.125 0.0937,0.125 0.0937,0.0937 0.0937,0.125 0.0937,0.0937 0.0937,0.0937 0.125,0.0937 0.125,0.0937 0.0937,0.0937 0.125,0.0937 0.15625,0.0625 0.125,0.0625 c 0.66859,0.29148 1.3465,0.3125 1.5625,0.3125 2.4552,0 3.27005,-1.81934 3.78125,-2.9375 -0.0267,1.17144 -0.0178,1.8765 0.0625,2.8125 0.4788,-0.0267 0.98205,-0.0625 1.78125,-0.0625 0.45202,0 0.8589,0.0358 1.3125,0.0625 -0.29153,-0.45464 -0.44831,-0.71248 -0.53125,-1.75 -0.0508,-1.01088 -0.0625,-2.02486 -0.0625,-3.4375 l 0.0312,-5.4375 c 0,-2.02752 -0.53475,-4.03125 -4.53125,-4.03125 z m 0.5,7.125 1.40625,0 0.0312,0 -0.0312,0.15625 0,0.15625 0,0.28125 0,0.3125 -0.0312,0.25 0,0.28125 -0.0312,0.25 0,0.25 -0.0312,0.21875 -0.0312,0.25 -0.0312,0.21875 -0.0312,0.21875 -0.0625,0.1875 -0.0625,0.1875 -0.0625,0.1875 -0.0625,0.1875 -0.0312,0.0937 -0.0312,0.0937 c -0.56174,1.20096 -1.4891,1.53125 -2.1875,1.53125 -1.5984,0 -1.96875,-1.31676 -1.96875,-2.625 0,-2.50344 2.242,-2.6875 3.25,-2.6875 z"
         style="font-style:normal;font-variant:normal;font-weight:normal;font-stretch:normal;letter-spacing:normal;word-spacing:normal;text-anchor:start;fill:#000000;fill-opacity:1;fill-rule:nonzero;stroke:#000000;stroke-width:0;stroke-linecap:butt;stroke-linejoin:miter;stroke-miterlimit:10.43299961;stroke-opacity:1;stroke-dasharray:none;stroke-dashoffset:0"
         inkscape:connector-curvature="0" />
      <path
         id="path2170-7-1-4-3"
         style="font-style:normal;font-variant:normal;font-weight:normal;font-stretch:normal;letter-spacing:normal;word-spacing:normal;text-anchor:start;fill:#000000;fill-opacity:1;fill-rule:nonzero;stroke:#000000;stroke-width:0;stroke-linecap:butt;stroke-linejoin:miter;stroke-miterlimit:10.43299961;stroke-opacity:1;stroke-dasharray:none;stroke-dashoffset:0"
         d="m 1.1892672,0.69075288 1.12e-5,4.7545e-4 1.48e-5,4.7545e-4 1.12e-5,2.3773e-4 1.48e-5,2.4136e-4 1.86e-5,2.3409e-4 2.23e-5,2.3773e-4 2.97e-5,2.3024e-4 3.72e-5,2.3024e-4 4.08e-5,2.266e-4 5.2e-5,2.266e-4 5.95e-5,2.1911e-4 3.34e-5,1.0773e-4 3.71e-5,1.0401e-4 3.72e-5,1.0773e-4 4.09e-5,1.0402e-4 4.45e-5,1.003e-4 4.83e-5,1.0401e-4 c -8.135e-4,-7.429e-5 -0.00129,-1.8574e-4 -0.00281,-1.8574e-4 -8.878e-4,0 -0.00137,7.43e-5 -0.00207,1.8574e-4 1.449e-4,-4.793e-4 2.23e-4,-6.6503e-4 2.936e-4,-0.0013 1.151e-4,-8.5077e-4 1.894e-4,-0.003696 1.894e-4,-0.004699 l 0,-0.003997 c 0,-0.001739 0,-0.004257 -1.114e-4,-0.005145 -7.8e-5,-6.278e-4 -2.563e-4,-0.002329 -0.00241,-0.002329 -0.00211,0 -0.00281,0.001553 -0.00307,0.002812 -2.972e-4,0.001293 -2.972e-4,0.002704 -2.972e-4,0.008184 3.72e-5,0.004733 3.72e-5,0.005175 4.087e-4,0.006475 -6.314e-4,-7.43e-5 -0.00141,-1.486e-4 -0.00252,-1.486e-4 -8.917e-4,0 -0.00148,3.715e-5 -0.00222,1.486e-4 2.6e-4,-5.9443e-4 4.087e-4,-8.8779e-4 4.829e-4,-0.002961 7.43e-5,-0.002036 2.192e-4,-0.0120323 -1.151e-4,-0.0143987 -1.82e-4,-0.001445 -5.497e-4,-0.001779 -9.584e-4,-0.002151 0.003,-1.4859e-4 0.00396,-6.278e-4 0.00489,-0.001107 l 0,0.003923 c 4.457e-4,-0.001148 0.00137,-0.003704 0.00507,-0.003704 0.00463,0 0.00466,0.003369 0.0047,0.005591 l 0,0.0111445 z"
         inkscape:connector-curvature="0" />
      <polygon
         id="polygon2172-5-29-4-3"
         style="font-style:normal;font-variant:normal;font-weight:normal;font-stretch:normal;letter-spacing:normal;word-spacing:normal;text-anchor:start;fill:#e3006b;fill-opacity:1;fill-rule:nonzero;stroke:#e3006b;stroke-width:0;stroke-linecap:butt;stroke-linejoin:miter;stroke-miterlimit:10.43299961;stroke-opacity:1;stroke-dasharray:none;stroke-dashoffset:0"
         points="286.73,248 278.48,239.73 270.23,248 278.48,256.24 286.73,248 "
         transform="matrix(3.7148269e-4,0,0,-3.7148269e-4,1.0498981,0.76071793)" />
    </g>
    <g
       id="g3599-9-3-4"
       transform="matrix(3091.606,0,0,3091.606,-3531.245,-1095.293)">
      <path
         id="path2176-0-9-2-3"
         style="font-style:normal;font-variant:normal;font-weight:normal;font-stretch:normal;letter-spacing:normal;word-spacing:normal;text-anchor:start;fill:#060808;fill-opacity:1;fill-rule:nonzero;stroke:#060808;stroke-width:0;stroke-linecap:butt;stroke-linejoin:miter;stroke-miterlimit:10.43299961;stroke-opacity:1;stroke-dasharray:none;stroke-dashoffset:0"
         d="m 1.1119473,0.70245024 -0.00225,0.009976 c -7.746e-4,0.003167 -8.114e-4,0.003315 -0.00111,0.005082 -7.746e-4,-1.0979e-4 -0.00129,-1.464e-4 -0.00254,-1.464e-4 -9.221e-4,0 -0.00148,3.661e-5 -0.00232,1.464e-4 -4.427e-4,-0.00416 -0.00262,-0.0161648 -0.0031,-0.0180801 -2.951e-4,-0.00103 -4.426e-4,-0.001288 -8.115e-4,-0.001915 4.057e-4,3.688e-5 7.377e-4,7.377e-5 0.00107,1.1349e-4 3.689e-4,3.405e-5 7.377e-4,3.405e-5 0.00118,3.405e-5 0.00133,0 0.00192,-3.405e-5 0.00273,-1.4754e-4 -1.078e-4,2.9516e-4 -2.95e-4,0.001251 -7.09e-5,0.002801 l 0.0011,0.007769 8.512e-4,0.005595 0.00114,-0.004529 c 0.0017,-0.007437 0.00192,-0.00858 0.00236,-0.0116363 3.319e-4,3.689e-5 5.901e-4,1.135e-4 8.853e-4,1.4755e-4 3.32e-4,0 6.639e-4,3.688e-5 0.00114,3.688e-5 0.00122,0 0.00155,-7.093e-5 0.00225,-1.8435e-4 2.582e-4,0.002395 4.029e-4,0.003093 0.00206,0.0113043 l 0.00107,0.005082 8.115e-4,-0.004012 c 8.114e-4,-0.004418 0.0017,-0.00906 0.0017,-0.0119314 l -7.37e-5,-4.4258e-4 c 3.319e-4,3.688e-5 6.638e-4,1.1349e-4 9.96e-4,1.4754e-4 3.688e-4,0 7.008e-4,3.689e-5 0.00107,3.689e-5 0.00114,0 0.0017,-7.094e-5 0.00229,-1.8436e-4 -5.164e-4,9.5905e-4 -8.114e-4,0.001623 -0.00177,0.00593 -0.0024,0.0108248 -0.00269,0.0120392 -0.00291,0.0140651 -8.484e-4,-7.32e-5 -0.0014,-1.464e-4 -0.00269,-1.8304e-4 -8.087e-4,0 -0.00162,1.0979e-4 -0.00236,1.8304e-4 -1.107e-4,-0.00103 -4.426e-4,-0.002835 -0.00177,-0.0102005 l -9.221e-4,-0.004858 z"
         inkscape:connector-curvature="0" />
      <path
         id="path2178-9-9-2-0"
         transform="scale(0.00138889,0.00138889)"
         d="m 814.5,502.0625 c -4.88477,0 -5.5,4.31443 -5.5,7.46875 l 0,0.28125 0,0.28125 0,0.3125 0.0312,0.3125 0.0312,0.28125 0,0.3125 0.0625,0.3125 0.0312,0.3125 0.0625,0.3125 0.0312,0.3125 0.0937,0.3125 0.0625,0.28125 0.0937,0.3125 0.125,0.28125 0.0937,0.28125 0.15625,0.28125 0.125,0.25 0.15625,0.28125 0.1875,0.21875 0.1875,0.25 0.21875,0.21875 0.21875,0.21875 0.25,0.1875 0.28125,0.15625 0.125,0.0937 0.15625,0.0625 0.15625,0.0937 0.15625,0.0625 0.15625,0.0625 0.15625,0.0625 0.1875,0.0625 0.1875,0.0312 0.1875,0.0625 0.1875,0.0312 0.1875,0.0312 0.1875,0.0312 0.21875,0 0.21875,0.0312 0.21875,0 0.21875,0 c 4.72392,0 5.37968,-4.22026 5.40625,-7.5625 0,-3.44664 -0.6109,-7.1875 -5.3125,-7.1875 z m -0.1875,1.625 0.1875,0 c 1.6488,0 2.49532,1.47405 2.46875,5.53125 -0.0216,4.374 -0.86085,5.84375 -2.53125,5.84375 -2.3629,0 -2.53125,-3.00634 -2.53125,-5.3125 l 0,-0.34375 0,-0.3125 0,-0.3125 0,-0.3125 0.0312,-0.3125 0,-0.28125 0.0312,-0.3125 0.0312,-0.28125 0.0312,-0.25 0.0312,-0.28125 0.0625,-0.25 0.0312,-0.25 0.0625,-0.21875 0.0312,-0.21875 0.0937,-0.21875 0.0625,-0.21875 0.0625,-0.1875 0.0937,-0.1875 0.0937,-0.15625 0.0937,-0.1875 0.0937,-0.125 0.0937,-0.15625 0.125,-0.125 0.125,-0.125 0.125,-0.0937 0.15625,-0.0937 0.15625,-0.0625 0.15625,-0.0625 0.15625,-0.0625 0.1875,-0.0312 0.1875,-0.0312 z"
         style="font-style:normal;font-variant:normal;font-weight:normal;font-stretch:normal;letter-spacing:normal;word-spacing:normal;text-anchor:start;fill:#060808;fill-opacity:1;fill-rule:nonzero;stroke:#060808;stroke-width:0;stroke-linecap:butt;stroke-linejoin:miter;stroke-miterlimit:10.43299961;stroke-opacity:1;stroke-dasharray:none;stroke-dashoffset:0"
         inkscape:connector-curvature="0" />
      <path
         id="path2182-3-3-3-6"
         style="font-style:normal;font-variant:normal;font-weight:normal;font-stretch:normal;letter-spacing:normal;word-spacing:normal;text-anchor:start;fill:#060808;fill-opacity:1;fill-rule:nonzero;stroke:#060808;stroke-width:0;stroke-linecap:butt;stroke-linejoin:miter;stroke-miterlimit:10.43299961;stroke-opacity:1;stroke-dasharray:none;stroke-dashoffset:0"
         d="m 1.1405713,0.70642548 -2.9e-6,-1.958e-4 0,-1.9302e-4 -2.8e-6,-1.8436e-4 -2.8e-6,-1.8158e-4 0,-1.7585e-4 -2.9e-6,-1.7308e-4 -2.8e-6,-3.2917e-4 -2.8e-6,-3.1494e-4 -2.9e-6,-2.9516e-4 -2.8e-6,-2.8095e-4 -2.9e-6,-2.6395e-4 -2.8e-6,-2.4973e-4 -2.8e-6,-2.3552e-4 -2.9e-6,-2.2423e-4 -2.8e-6,-2.1002e-4 -5.7e-6,-1.9857e-4 -2.8e-6,-1.8436e-4 -5.7e-6,-1.788e-4 -5.7e-6,-1.6736e-4 -5.6e-6,-1.5606e-4 -5.7e-6,-1.5038e-4 -5.7e-6,-1.4187e-4 -5.7e-6,-1.3336e-4 -8.5e-6,-1.3052e-4 -8.5e-6,-1.2201e-4 -8.5e-6,-1.1918e-4 -1.14e-5,-1.1349e-4 -1.98e-5,-2.1852e-4 -2.56e-5,-2.1001e-4 -2.83e-5,-2.0708e-4 -3.12e-5,-2.1001e-4 c -2.583e-4,-0.001623 -8.115e-4,-0.001915 -0.00133,-0.00221 0.00295,-1.1066e-4 0.00439,-7.3775e-4 0.00527,-0.00107 l 0,0.004052 c 5.164e-4,-0.001178 0.00166,-0.003791 0.00513,-0.003791 0.0035,0 0.00402,0.00265 0.0042,0.003754 5.533e-4,-0.001141 0.00181,-0.003754 0.00539,-0.003754 0.00376,0 0.0042,0.002244 0.0042,0.005116 l 0,0.005156 c 0,0.005967 0,0.008764 5.192e-4,0.0100167 -6.668e-4,-1.1066e-4 -0.00129,-2.2047e-4 -0.00247,-2.2047e-4 -9.59e-4,0 -0.00148,7.32e-5 -0.0024,2.2047e-4 2.952e-4,-5.8968e-4 4.426e-4,-8.8337e-4 5.902e-4,-0.002798 l 0,-0.00313 0,-0.002321 0,-0.005082 c 0,-0.002208 -2.213e-4,-0.003791 -0.00262,-0.003791 -0.00151,0 -0.00258,0.001248 -0.00276,0.002097 -2.98e-4,0.001143 -2.98e-4,0.003314 -2.98e-4,0.005414 l 0,0.00475 c 0,0.002908 1.504e-4,0.004161 5.165e-4,0.004861 -8.456e-4,-1.1066e-4 -0.00129,-1.8386e-4 -0.00239,-1.8386e-4 -0.00118,0 -0.00162,7.32e-5 -0.00251,1.8386e-4 2.213e-4,-4.7985e-4 2.952e-4,-7.0032e-4 3.689e-4,-0.001362 7.38e-5,-9.9647e-4 2.582e-4,-0.002506 2.582e-4,-0.004714 l 0,-0.004052 c 0,-0.005337 -2.582e-4,-0.00692 -0.00262,-0.00692 -0.00314,0 -0.0031,0.003462 -0.00306,0.005964 l 0,0.003938 c 0,0.003867 0,0.006224 3.689e-4,0.007145 -5.929e-4,-1.1066e-4 -0.00118,-2.2047e-4 -0.00214,-2.2047e-4 -0.00111,0 -0.00188,1.0979e-4 -0.00258,2.2047e-4 2.583e-4,-5.5307e-4 4.029e-4,-8.4791e-4 5.902e-4,-0.002946 l 0,-0.004455 0,-0.00372 z"
         inkscape:connector-curvature="0" />
      <path
         id="path2184-1-8-8-5"
         transform="scale(0.00138889,0.00138889)"
         d="m 844.28125,502.03125 c -5.4144,0 -5.40625,5.9792 -5.40625,7.25 0,5.38337 2.40795,7.5 6.46875,7.5 1.8072,0 2.67824,-0.24238 3.15625,-0.375 -0.0266,-0.954 0.12199,-1.58329 0.28125,-2.40625 -0.5544,0.34548 -1.2766,0.8125 -2.875,0.8125 -4.14454,0 -4.1875,-3.7629 -4.1875,-5.0625 l 7.0625,0 0.0312,-1.5625 c 0,-3.10176 -0.60005,-6.15625 -4.53125,-6.15625 z m -0.25,1.71875 0.0937,0 0.0937,0 0.0625,0 0.0937,0.0312 0.0937,0 0.0937,0.0312 0.0625,0 0.0937,0.0312 0.0625,0.0312 0.0625,0.0312 0.0937,0.0312 0.0625,0.0312 0.125,0.0625 0.125,0.0937 0.0937,0.0937 0.0937,0.125 0.0937,0.0937 0.0937,0.125 0.0937,0.125 0.0625,0.15625 0.0625,0.125 0.0625,0.15625 0.0625,0.15625 0.0312,0.15625 0.0312,0.15625 0.0312,0.1875 0.0312,0.15625 0.0312,0.1875 0.0312,0.15625 0,0.1875 0.0312,0.1875 0,0.15625 0,0.375 0,0.375 0,0.34375 -4.53125,0 c 0.0216,-2.20248 0.4886,-4.15625 2.375,-4.15625 z"
         style="font-style:normal;font-variant:normal;font-weight:normal;font-stretch:normal;letter-spacing:normal;word-spacing:normal;text-anchor:start;fill:#060808;fill-opacity:1;fill-rule:nonzero;stroke:#060808;stroke-width:0;stroke-linecap:butt;stroke-linejoin:miter;stroke-miterlimit:10.43299961;stroke-opacity:1;stroke-dasharray:none;stroke-dashoffset:0"
         inkscape:connector-curvature="0" />
      <path
         id="path2188-4-5-0-9"
         style="font-style:normal;font-variant:normal;font-weight:normal;font-stretch:normal;letter-spacing:normal;word-spacing:normal;text-anchor:start;fill:#060808;fill-opacity:1;fill-rule:nonzero;stroke:#060808;stroke-width:0;stroke-linecap:butt;stroke-linejoin:miter;stroke-miterlimit:10.43299961;stroke-opacity:1;stroke-dasharray:none;stroke-dashoffset:0"
         d="m 1.1940795,0.71389926 1.13e-5,4.7381e-4 1.7e-5,4.738e-4 8.6e-6,2.3829e-4 1.7e-5,2.3829e-4 1.7e-5,2.3551e-4 2.27e-5,2.329e-4 2.84e-5,2.3208e-4 3.69e-5,2.293e-4 4.25e-5,2.262e-4 5.11e-5,2.2244e-4 5.96e-5,2.1851e-4 3.12e-5,1.0754e-4 3.69e-5,1.0612e-4 3.97e-5,1.05e-4 3.97e-5,1.0384e-4 4.54e-5,1.0215e-4 4.54e-5,1.0073e-4 c -8.087e-4,-7.406e-5 -0.00129,-1.8387e-4 -0.0028,-1.8387e-4 -8.881e-4,0 -0.00136,7.32e-5 -0.00207,1.8387e-4 1.476e-4,-4.7985e-4 2.213e-4,-6.6388e-4 2.952e-4,-0.001289 1.107e-4,-8.4529e-4 1.844e-4,-0.003683 1.844e-4,-0.004676 l 0,-0.003978 c 0,-0.001731 0,-0.004233 -1.107e-4,-0.005119 -7.38e-5,-6.2416e-4 -2.582e-4,-0.002318 -0.0024,-0.002318 -0.0021,0 -0.0028,0.001546 -0.00306,0.002798 -2.952e-4,0.001288 -2.952e-4,0.00269 -2.952e-4,0.008138 3.69e-5,0.004713 3.69e-5,0.005155 4.059e-4,0.006444 -6.272e-4,-7.405e-5 -0.0014,-1.4725e-4 -0.00251,-1.4725e-4 -8.853e-4,0 -0.00148,3.659e-5 -0.00221,1.4725e-4 2.553e-4,-5.8968e-4 4.029e-4,-8.8337e-4 4.795e-4,-0.002946 7.38e-5,-0.002026 2.213e-4,-0.0119683 -1.106e-4,-0.0143233 -1.873e-4,-0.001436 -5.533e-4,-0.001768 -9.591e-4,-0.002137 0.00299,-1.4755e-4 0.00394,-6.2711e-4 0.00487,-0.001104 l 0,0.003904 c 4.426e-4,-0.001143 0.00136,-0.003683 0.00505,-0.003683 0.00461,0 0.00465,0.003348 0.00468,0.005559 l 0,0.011083 z"
         inkscape:connector-curvature="0" />
    </g>
    <g
       transform="scale(0.93173442,1.0732672)"
       style="font-size:29.05039215px;font-style:normal;font-variant:normal;font-weight:bold;font-stretch:normal;text-align:start;line-height:125%;letter-spacing:0px;word-spacing:0px;writing-mode:lr-tb;text-anchor:start;fill:#000000;fill-opacity:1;stroke:none;font-family:LaudatioC;-inkscape-font-specification:LaudatioC Bold"
       id="text3170-06-5-4">
      <path
         d="m -116.73439,1076.614 c -10e-6,1.9367 -0.67785,3.4376 -2.03352,4.5028 -1.2395,0.949 -2.85664,1.4235 -4.85142,1.4235 -0.52292,0 -1.30727,-0.019 -2.35308,-0.058 -1.04582,-0.039 -1.83018,-0.058 -2.35308,-0.058 -0.77468,0 -1.84955,0.039 -3.2246,0.1162 0.58101,-0.7166 0.87151,-4.1252 0.87152,-10.2258 -1e-5,-3.4666 -1e-5,-5.2581 0,-5.3743 -0.0968,-2.3821 -0.35829,-4.1058 -0.78436,-5.171 0.8134,0.097 1.5784,0.1453 2.29498,0.1453 0.67783,0 1.68491,-0.019 3.02124,-0.058 1.35567,-0.039 2.37244,-0.058 3.05029,-0.058 1.68491,0 3.04059,0.3874 4.06705,1.162 1.14264,0.8715 1.71396,2.1304 1.71398,3.7766 -2e-5,2.8469 -1.85924,4.4834 -5.57768,4.9095 1.91731,0.1549 3.35047,0.5326 4.29946,1.1329 1.23947,0.7941 1.85921,2.0723 1.85922,3.8347 m -3.8056,-9.6447 c -1e-5,-2.2466 -1.48158,-3.3699 -4.44471,-3.3699 -0.83278,0 -1.72366,0.039 -2.67263,0.1162 -0.0581,0.6198 -0.0872,2.8954 -0.0871,6.8269 0.8715,0.097 1.83985,0.1452 2.90503,0.1452 1.25885,0 2.28529,-0.3098 3.07935,-0.9296 0.81339,-0.6197 1.2201,-1.5493 1.22011,-2.7888 m 0.52291,9.7609 c -10e-6,-2.6339 -1.65588,-3.9508 -4.96762,-3.9509 -0.0968,10e-5 -1.01677,0.019 -2.75978,0.058 l 0,5.4906 c -1e-5,1.0652 0.23239,1.7527 0.6972,2.0625 0.3486,0.2324 1.08455,0.3487 2.20783,0.3486 1.35568,10e-5 2.46928,-0.3195 3.3408,-0.9586 0.9877,-0.7166 1.48156,-1.7333 1.48157,-3.0503"
         style="line-height:125%;font-family:LaudatioC;-inkscape-font-specification:LaudatioC Bold"
         id="path3061" />
      <path
         d="m -100.53834,1082.5693 c -0.77469,-0.1162 -1.39443,-0.1743 -1.85922,-0.1743 -0.46482,0 -1.08456,0.058 -1.85923,0.1743 -0.0581,-0.4454 -0.0872,-1.6849 -0.0872,-3.7184 -0.40672,1.162 -1.09424,2.0916 -2.06258,2.7888 -0.96835,0.6779 -2.06258,1.0168 -3.28269,1.0168 -1.43316,0 -2.58549,-0.4648 -3.457,-1.3944 -0.87151,-0.9297 -1.30727,-2.1207 -1.30727,-3.5732 0,-3.5635 2.79852,-5.3453 8.39557,-5.3453 0.46479,0 0.9877,0.01 1.56872,0.029 l 0,-0.7553 c -1e-5,-2.4983 -1.01678,-3.7475 -3.05029,-3.7475 -0.98772,0 -1.98512,0.2324 -2.99219,0.6972 -0.98772,0.4455 -1.77208,1.0459 -2.35309,1.8012 -0.1743,-0.8328 -0.49385,-1.6849 -0.95866,-2.5565 2.5177,-1.1232 4.82236,-1.6849 6.914,-1.6849 1.83984,0 3.19553,0.4067 4.06705,1.2201 0.89087,0.7941 1.3363,2.0917 1.33632,3.8928 l 0,7.3207 c -2e-5,1.0071 0.0387,1.7043 0.1162,2.0916 0.11619,0.6778 0.40669,1.3169 0.87151,1.9173 m -3.95085,-8.4536 c -0.67785,-0.097 -1.3557,-0.1453 -2.03353,-0.1453 -3.19555,0 -4.79332,1.2395 -4.79331,3.7185 -1e-5,0.794 0.23239,1.4428 0.69721,1.9463 0.48416,0.5036 1.12327,0.7553 1.91732,0.7553 1.06517,0 1.97542,-0.4163 2.73074,-1.2491 0.60036,-0.6585 1.00707,-1.4429 1.22011,-2.3531 0.13556,-0.581 0.22271,-1.4719 0.26146,-2.6726"
         style="line-height:125%;font-family:LaudatioC;-inkscape-font-specification:LaudatioC Bold"
         id="path3063" />
      <path
         d="m -88.903657,1066.1268 c -0.329248,0.8909 -0.542284,1.8689 -0.639108,2.9341 -0.290514,-0.077 -0.551967,-0.1162 -0.784361,-0.1162 -1.142657,0 -2.091635,0.5326 -2.846938,1.5978 -0.697215,0.9877 -1.04582,2.5177 -1.045815,4.5899 l 0,3.5732 c -5e-6,1.4332 0.145247,2.7211 0.435756,3.8637 -0.871516,-0.1355 -1.47189,-0.2033 -1.801124,-0.2033 -0.309874,0 -0.939299,0.068 -1.888275,0.2033 0.271134,-1.0264 0.406703,-2.4112 0.406705,-4.1542 l 0,-7.3497 c -2e-6,-2.0335 -0.367973,-3.4861 -1.103915,-4.3576 1.413783,-0.058 2.769467,-0.3292 4.067055,-0.8134 -0.05811,1.1814 -0.08716,1.9851 -0.08715,2.4112 l 0,1.9173 c 1.181376,-2.5951 2.943765,-3.9605 5.287171,-4.0961"
         style="line-height:125%;font-family:LaudatioC;-inkscape-font-specification:LaudatioC Bold"
         id="path3065" />
      <path
         d="m -75.525497,1066.7659 c -0.348618,0.8909 -0.610071,1.7721 -0.784361,2.6436 -0.89089,-0.9102 -2.033538,-1.3654 -3.427946,-1.3654 -1.665563,0 -2.943779,0.6101 -3.834652,1.8302 -0.794048,1.0846 -1.19107,2.4887 -1.191066,4.2123 -4e-6,1.9561 0.474485,3.5442 1.423469,4.7643 1.045808,1.3363 2.517693,2.0045 4.41566,2.0045 1.200738,0 2.217501,-0.339 3.050291,-1.0168 -0.309883,0.8521 -0.513236,1.6849 -0.610058,2.4983 -1.084559,0.2324 -2.023854,0.3486 -2.817888,0.3486 -2.69201,0 -4.79332,-0.7069 -6.303935,-2.1207 -1.510622,-1.4331 -2.265932,-3.486 -2.265931,-6.1586 -10e-7,-2.5371 0.735942,-4.5513 2.20783,-6.0425 1.491249,-1.5106 3.505407,-2.2659 6.042482,-2.2659 1.200739,0 2.566106,0.2227 4.096105,0.6681"
         style="line-height:125%;font-family:LaudatioC;-inkscape-font-specification:LaudatioC Bold"
         id="path3067" />
      <path
         d="m -60.855504,1072.8374 c -1.4e-5,0.523 -0.02906,1.0943 -0.08715,1.714 l -10.487191,0 c 0.309866,4.1252 2.265924,6.1878 5.868179,6.1877 1.801112,10e-5 3.205213,-0.5422 4.212307,-1.6268 -0.329252,0.9684 -0.532605,1.9561 -0.610059,2.9632 -1.33633,0.3873 -2.71138,0.581 -4.125155,0.581 -2.633909,0 -4.706169,-0.736 -6.216784,-2.2079 -1.510622,-1.4718 -2.265932,-3.5247 -2.265931,-6.1586 -10e-7,-2.479 0.59069,-4.4351 1.772074,-5.8682 1.29758,-1.5494 3.156803,-2.324 5.577676,-2.324 2.07225,0 3.650653,0.6003 4.735213,1.8011 1.084534,1.2007 1.626808,2.8469 1.626822,4.9385 m -3.050291,0 c 0.01935,-3.3892 -1.162026,-5.0838 -3.544148,-5.0838 -2.459605,0 -3.795922,1.6946 -4.008954,5.0838 l 7.553102,0"
         style="line-height:125%;font-family:LaudatioC;-inkscape-font-specification:LaudatioC Bold"
         id="path3069" />
      <path
         d="m -54.261975,1082.5403 c -1.045818,-0.097 -1.704293,-0.1453 -1.975426,-0.1453 -0.581011,0 -1.220119,0.048 -1.917326,0.1453 0.329235,-0.9684 0.493854,-2.9728 0.493856,-6.0135 l 0.02905,-9.9352 c -3e-6,-1.1814 -0.04842,-2.0335 -0.145252,-2.5564 -0.174305,-1.0265 -0.561643,-1.7527 -1.162016,-2.1788 1.549352,-0.1743 3.050287,-0.5907 4.502811,-1.2492 -0.271142,1.6075 -0.406711,3.4474 -0.406706,5.5196 l 0,12.0269 c -5e-6,1.956 0.193664,3.4182 0.581008,4.3866"
         style="line-height:125%;font-family:LaudatioC;-inkscape-font-specification:LaudatioC Bold"
         id="path3071" />
      <path
         d="m -36.192625,1074.2319 c -1.7e-5,2.537 -0.619758,4.5512 -1.859225,6.0424 -1.316965,1.6075 -3.224605,2.4112 -5.722927,2.4112 -2.517707,0 -4.454398,-0.7456 -5.810079,-2.2369 -1.297586,-1.4331 -1.946377,-3.4182 -1.946376,-5.9553 -10e-7,-2.5564 0.629423,-4.5803 1.888275,-6.0715 1.336314,-1.5687 3.263321,-2.3531 5.781028,-2.3531 2.459589,0 4.367229,0.7553 5.722928,2.2659 1.297568,1.4526 1.946359,3.4183 1.946376,5.8973 m -3.079342,0.1743 c -1.3e-5,-4.3188 -1.471898,-6.4783 -4.415659,-6.4783 -3.214916,0 -4.82237,2.1595 -4.822365,6.4783 -5e-6,4.2994 1.568715,6.4492 4.706163,6.4492 3.021229,0 4.531848,-2.1498 4.531861,-6.4492"
         style="line-height:125%;font-family:LaudatioC;-inkscape-font-specification:LaudatioC Bold"
         id="path3073" />
      <path
         d="m -19.241269,1082.5693 c -0.929628,-0.097 -1.559052,-0.1452 -1.888276,-0.1452 -0.290517,0 -0.948992,0.048 -1.975426,0.1452 0.290491,-1.1233 0.435743,-2.5951 0.435756,-4.4156 l 0,-6.3911 c -1.3e-5,-1.162 -0.183998,-1.9948 -0.551958,-2.4984 -0.445451,-0.6197 -1.220127,-0.9296 -2.324031,-0.9296 -1.917334,0 -3.214917,0.736 -3.892753,2.2079 -0.426077,0.9683 -0.639113,2.5467 -0.639108,4.7352 l 0,3.1955 c -5e-6,1.8205 0.15493,3.1859 0.464806,4.0961 -0.774682,-0.1162 -1.38474,-0.1743 -1.830175,-0.1743 -0.464809,0 -1.074867,0.058 -1.830174,0.1743 0.251767,-1.0458 0.377652,-2.4112 0.377655,-4.0961 l 0,-5.6358 c -3e-6,-1.6074 -0.03874,-2.7016 -0.116202,-3.2827 -0.154937,-1.4137 -0.532592,-2.3627 -1.132965,-2.8469 1.258848,0 2.643582,-0.2808 4.154206,-0.8425 -0.01937,0.4455 -0.02906,0.9781 -0.02905,1.5978 l 0,2.2079 c 0.639103,-1.2976 1.404096,-2.2175 2.294981,-2.7598 0.890871,-0.5423 2.062569,-0.8134 3.515098,-0.8134 1.917313,0 3.185845,0.581 3.805601,1.743 0.426058,0.8134 0.639094,2.2659 0.639109,4.3575 l 0,6.333 c -1.5e-5,1.9173 0.174287,3.2633 0.522907,4.038"
         style="line-height:125%;font-family:LaudatioC;-inkscape-font-specification:LaudatioC Bold"
         id="path3075" />
      <path
         d="m -2.4932658,1082.5693 c -0.7746914,-0.1162 -1.3944325,-0.1743 -1.8592251,-0.1743 -0.464819,0 -1.0845601,0.058 -1.8592251,0.1743 -0.058112,-0.4454 -0.087162,-1.6849 -0.087151,-3.7184 -0.4067163,1.162 -1.0942416,2.0916 -2.0625778,2.7888 -0.9683546,0.6779 -2.062585,1.0168 -3.282694,1.0168 -1.433157,0 -2.585489,-0.4648 -3.456997,-1.3944 -0.871513,-0.9297 -1.307269,-2.1207 -1.307268,-3.5732 -10e-7,-3.5635 2.798518,-5.3453 8.3955637,-5.3453 0.4647963,0 0.9877028,0.01 1.5687212,0.029 l 0,-0.7553 c -1.11e-5,-2.4983 -1.0167739,-3.7475 -3.0502912,-3.7475 -0.9877207,0 -1.9851167,0.2324 -2.9921907,0.6972 -0.987717,0.4455 -1.772077,1.0459 -2.353081,1.8012 -0.174305,-0.8328 -0.493859,-1.6849 -0.958663,-2.5565 2.517696,-1.1232 4.822358,-1.6849 6.9139929,-1.6849 1.8398477,0 3.1955313,0.4067 4.0670549,1.2201 0.8908651,0.7941 1.336304,2.0917 1.3363181,3.8928 l 0,7.3207 c -1.41e-5,1.0071 0.03872,1.7043 0.1162016,2.0916 0.1161872,0.6778 0.4066908,1.3169 0.8715117,1.9173 m -3.9508533,-8.4536 c -0.6778529,-0.097 -1.3556948,-0.1453 -2.0335275,-0.1453 -3.1955494,0 -4.7933194,1.2395 -4.7933144,3.7185 -5e-6,0.794 0.232398,1.4428 0.697209,1.9463 0.484168,0.5036 1.123276,0.7553 1.917326,0.7553 1.0651731,0 1.9754178,-0.4163 2.7307369,-1.2491 0.6003645,-0.6585 1.0070696,-1.4429 1.2201165,-2.3531 0.1355574,-0.581 0.2227085,-1.4719 0.2614535,-2.6726"
         style="line-height:125%;font-family:LaudatioC;-inkscape-font-specification:LaudatioC Bold"
         id="path3077" />
      <path
         d="m 3.9123509,1078.7928 c -0.2517749,2.6339 -1.510624,5.2678 -3.77655095,7.9017 -0.32923881,-0.3099 -0.67784317,-0.5617 -1.04581412,-0.7553 1.33631639,-1.5494 2.00447477,-3.244 2.00447707,-5.0838 -2.3e-6,-0.3487 -0.04842,-0.8716 -0.14525197,-1.5688 1.02644397,-0.058 2.01415637,-0.2227 2.96313997,-0.4938"
         style="line-height:125%;font-family:LaudatioC;-inkscape-font-specification:LaudatioC Bold"
         id="path3079" />
      <path
         d="m 37.682975,1082.5403 c -0.890902,-0.1356 -1.655895,-0.2034 -2.294981,-0.2034 -0.677863,0 -1.462223,0.068 -2.353082,0.2034 0.600355,-0.8715 0.900542,-4.0671 0.900562,-9.5867 -2e-5,-0.8134 -0.0097,-1.7817 -0.02905,-2.905 -2e-5,-1.1426 -2e-5,-1.8108 0,-2.0045 -2e-5,-1.5687 0.0484,-2.8082 0.145252,-3.7184 -0.232423,0.7553 -0.581028,1.6752 -1.045814,2.7598 -0.406724,0.9102 -0.803746,1.8205 -1.191066,2.7307 l -5.200021,12.6079 -1.53967,0 -4.38661,-12.0559 c -0.484179,-1.3363 -1.191071,-3.3602 -2.120678,-6.0716 0.135563,0.9878 0.203348,2.1885 0.203353,3.6023 -5e-6,1.2395 -0.02906,3.0987 -0.08715,5.5777 -0.0581,2.4789 -0.08716,4.3381 -0.08715,5.5776 -5e-6,1.317 0.145247,2.479 0.435756,3.4861 -0.890883,-0.1162 -1.588092,-0.1743 -2.091628,-0.1743 -0.619744,0 -1.239485,0.058 -1.859225,0.1743 0.600373,-1.6656 0.997394,-4.2898 1.191066,-7.8727 0.07747,-1.6849 0.116199,-4.4059 0.116201,-8.1631 -2e-6,-2.5565 -0.32924,-4.1445 -0.987713,-4.7643 1.239481,0.1162 2.188459,0.1743 2.846938,0.1743 0.581003,0 1.510615,-0.058 2.788838,-0.1743 0.348597,1.6462 0.900554,3.5345 1.655872,5.6648 0.677833,1.8593 1.355675,3.7088 2.033528,5.5486 0.387327,1.0652 0.919917,2.6727 1.597771,4.8224 0.193657,-0.9102 0.532578,-1.956 1.016764,-3.1374 0.445426,-1.0265 0.890865,-2.0432 1.336318,-3.0503 0.716561,-1.6075 1.423453,-3.2246 2.120679,-4.8514 0.794026,-1.8786 1.355667,-3.5442 1.684923,-4.9967 0.735924,0.1356 1.48155,0.2034 2.23688,0.2033 0.832756,10e-5 1.801102,-0.068 2.905039,-0.2033 -0.464829,1.162 -0.706916,2.6823 -0.72626,4.5609 -0.03876,2.6727 -0.05812,5.6842 -0.0581,9.0347 -2.2e-5,3.7572 0.280798,6.1587 0.842462,7.2045"
         style="line-height:125%;font-family:LaudatioC;-inkscape-font-specification:LaudatioC Bold"
         id="path3081" />
      <path
         d="m 54.416005,1082.5693 c -0.774691,-0.1162 -1.394432,-0.1743 -1.859225,-0.1743 -0.464819,0 -1.08456,0.058 -1.859225,0.1743 -0.05811,-0.4454 -0.08716,-1.6849 -0.08715,-3.7184 -0.406716,1.162 -1.094242,2.0916 -2.062578,2.7888 -0.968354,0.6779 -2.062585,1.0168 -3.282694,1.0168 -1.433157,0 -2.585488,-0.4648 -3.456997,-1.3944 -0.871513,-0.9297 -1.307269,-2.1207 -1.307267,-3.5732 -2e-6,-3.5635 2.798517,-5.3453 8.395563,-5.3453 0.464796,0 0.987703,0.01 1.568721,0.029 l 0,-0.7553 c -1.1e-5,-2.4983 -1.016774,-3.7475 -3.050291,-3.7475 -0.98772,0 -1.985116,0.2324 -2.99219,0.6972 -0.987718,0.4455 -1.772078,1.0459 -2.353082,1.8012 -0.174305,-0.8328 -0.493859,-1.6849 -0.958663,-2.5565 2.517696,-1.1232 4.822358,-1.6849 6.913993,-1.6849 1.839848,0 3.195531,0.4067 4.067055,1.2201 0.890865,0.7941 1.336304,2.0917 1.336318,3.8928 l 0,7.3207 c -1.4e-5,1.0071 0.03872,1.7043 0.116202,2.0916 0.116187,0.6778 0.406691,1.3169 0.871511,1.9173 m -3.950853,-8.4536 c -0.677853,-0.097 -1.355695,-0.1453 -2.033527,-0.1453 -3.195549,0 -4.793319,1.2395 -4.793315,3.7185 -4e-6,0.794 0.232399,1.4428 0.697209,1.9463 0.484168,0.5036 1.123276,0.7553 1.917326,0.7553 1.065173,0 1.975418,-0.4163 2.730737,-1.2491 0.600365,-0.6585 1.00707,-1.4429 1.220117,-2.3531 0.135557,-0.581 0.222708,-1.4719 0.261453,-2.6726"
         style="line-height:125%;font-family:LaudatioC;-inkscape-font-specification:LaudatioC Bold"
         id="path3083" />
      <path
         d="m 66.050677,1066.1268 c -0.329247,0.8909 -0.542283,1.8689 -0.639108,2.9341 -0.290513,-0.077 -0.551967,-0.1162 -0.784361,-0.1162 -1.142656,0 -2.091635,0.5326 -2.846938,1.5978 -0.697215,0.9877 -1.045819,2.5177 -1.045814,4.5899 l 0,3.5732 c -5e-6,1.4332 0.145246,2.7211 0.435756,3.8637 -0.871517,-0.1355 -1.471891,-0.2033 -1.801125,-0.2033 -0.309874,0 -0.939298,0.068 -1.888275,0.2033 0.271135,-1.0264 0.406703,-2.4112 0.406705,-4.1542 l 0,-7.3497 c -2e-6,-2.0335 -0.367973,-3.4861 -1.103915,-4.3576 1.413784,-0.058 2.769467,-0.3292 4.067055,-0.8134 -0.05811,1.1814 -0.08716,1.9851 -0.08715,2.4112 l 0,1.9173 c 1.181376,-2.5951 2.943765,-3.9605 5.287171,-4.0961"
         style="line-height:125%;font-family:LaudatioC;-inkscape-font-specification:LaudatioC Bold"
         id="path3085" />
      <path
         d="m 79.428845,1066.7659 c -0.348618,0.8909 -0.610071,1.7721 -0.784361,2.6436 -0.89089,-0.9102 -2.033538,-1.3654 -3.427946,-1.3654 -1.665563,0 -2.943779,0.6101 -3.834652,1.8302 -0.794048,1.0846 -1.19107,2.4887 -1.191066,4.2123 -4e-6,1.9561 0.474485,3.5442 1.423469,4.7643 1.045808,1.3363 2.517693,2.0045 4.41566,2.0045 1.200738,0 2.217501,-0.339 3.050291,-1.0168 -0.309884,0.8521 -0.513236,1.6849 -0.610058,2.4983 -1.08456,0.2324 -2.023855,0.3486 -2.817888,0.3486 -2.69201,0 -4.79332,-0.7069 -6.303935,-2.1207 -1.510623,-1.4331 -2.265932,-3.486 -2.265931,-6.1586 -10e-7,-2.5371 0.735942,-4.5513 2.20783,-6.0425 1.491249,-1.5106 3.505407,-2.2659 6.042482,-2.2659 1.200739,0 2.566106,0.2227 4.096105,0.6681"
         style="line-height:125%;font-family:LaudatioC;-inkscape-font-specification:LaudatioC Bold"
         id="path3087" />
      <path
         d="m 95.057505,1082.5403 c -0.890894,-0.077 -1.568735,-0.1162 -2.033527,-0.1162 -0.426086,0 -1.02646,0.039 -1.801125,0.1162 0.387326,-1.3363 0.580996,-3.3892 0.581008,-6.1587 -1.2e-5,-0.3292 -0.0097,-0.8425 -0.02905,-1.5397 -1.3e-5,-0.6778 -1.3e-5,-1.191 0,-1.5397 -1.3e-5,-1.7817 -0.08716,-2.9147 -0.261454,-3.3988 -0.367983,-1.0846 -1.258861,-1.6269 -2.672636,-1.6269 -2.963146,0 -4.444715,2.1401 -4.44471,6.4202 l 0,3.8346 c -5e-6,1.6656 0.174297,3.0019 0.522907,4.009 -0.735948,-0.097 -1.394423,-0.1453 -1.975426,-0.1453 -0.600378,0 -1.24917,0.048 -1.946377,0.1453 0.329236,-1.317 0.493855,-3.0116 0.493857,-5.0838 l 0,-8.1632 c -2e-6,-1.4719 -0.0581,-3.0406 -0.174302,-4.7062 -0.0581,-0.7359 -0.125887,-1.2394 -0.203353,-1.5106 -0.154937,-0.5035 -0.455124,-0.9005 -0.900562,-1.1911 1.510618,-0.1742 3.00187,-0.6003 4.47376,-1.2782 -0.251775,1.3945 -0.37766,3.1569 -0.377655,5.2872 l 0,3.6313 c 1.336312,-2.2853 3.302053,-3.4279 5.89723,-3.4279 2.382118,0 3.805586,0.9393 4.270407,2.8178 0.09682,0.3874 0.145237,1.2976 0.145252,2.7308 l 0,7.1173 c -1.5e-5,1.5881 0.145237,2.847 0.435756,3.7766"
         style="line-height:125%;font-family:LaudatioC;-inkscape-font-specification:LaudatioC Bold"
         id="path3089" />
      <path
         d="m 120.72306,1082.5403 c -2.16911,-0.155 -4.75459,-0.2324 -7.75645,-0.2324 -2.67264,0 -4.72554,0.077 -6.15869,0.2324 0.0968,-0.8328 0.14526,-1.4332 0.14526,-1.8012 0,-0.4454 -0.0484,-0.9102 -0.14526,-1.3944 2.111,-1.2201 4.18326,-2.8372 6.21679,-4.8514 2.59516,-2.537 3.89274,-4.6577 3.89275,-6.362 -1e-5,-1.2395 -0.4745,-2.2175 -1.42347,-2.9341 -0.83279,-0.6391 -1.89796,-0.9587 -3.19554,-0.9587 -2.09163,0 -3.78624,0.4939 -5.08382,1.4816 0.1162,-0.6778 0.1743,-1.2298 0.1743,-1.6559 0,-0.4067 -0.0581,-0.9199 -0.1743,-1.5396 1.66555,-0.6391 3.48604,-0.9587 5.46147,-0.9587 2.09162,0 3.76686,0.397 5.02572,1.1911 1.52998,0.9683 2.29497,2.4402 2.29498,4.4156 -10e-6,3.5054 -3.38922,7.5628 -10.16763,12.1721 l 8.04695,0 c 0.6972,0 1.22979,-0.058 1.59778,-0.1743 0.36795,-0.1355 0.78434,-0.4357 1.24916,-0.9005 -0.0969,0.794 -0.14526,1.5106 -0.14525,2.1497 -1e-5,0.6585 0.0484,1.3654 0.14525,2.1207"
         style="line-height:125%;font-family:LaudatioC;-inkscape-font-specification:LaudatioC Bold"
         id="path3091" />
      <path
         d="m 139.0979,1071.7045 c -1e-5,7.34 -2.46929,11.0101 -7.40785,11.0101 -5.0354,0 -7.5531,-3.5345 -7.5531,-10.6034 0,-7.0302 2.55643,-10.5453 7.6693,-10.5453 4.86109,0 7.29164,3.3795 7.29165,10.1386 m -3.28269,0.1452 c -1e-5,-2.3434 -0.17432,-4.0961 -0.52291,-5.2581 -0.61975,-2.0335 -1.8205,-3.0503 -3.60225,-3.0503 -2.84694,0 -4.27041,2.7598 -4.2704,8.2794 -1e-5,2.4015 0.18398,4.251 0.55195,5.5486 0.63911,2.2272 1.85922,3.3408 3.66035,3.3408 1.83985,0 3.06965,-1.1039 3.6894,-3.3117 0.32923,-1.1814 0.49385,-3.031 0.49386,-5.5487"
         style="line-height:125%;font-family:LaudatioC;-inkscape-font-specification:LaudatioC Bold"
         id="path3093" />
      <path
         d="m 150.93638,1082.5693 c -0.83279,-0.1549 -1.56874,-0.2324 -2.20783,-0.2324 -0.54229,0 -1.30728,0.077 -2.29499,0.2324 0.38734,-0.5229 0.61006,-1.3363 0.66816,-2.4402 0.1162,-1.9367 0.1743,-4.0671 0.17431,-6.3911 l 0,-3.5732 c -1e-5,-1.7817 -0.0387,-3.67 -0.11621,-5.6648 -1.49125,0.368 -3.05029,0.8715 -4.67711,1.5106 0.0581,-0.4454 0.0872,-0.8715 0.0872,-1.2782 0,-0.3099 -0.0291,-0.5616 -0.0872,-0.7553 3.0987,-0.6004 5.74229,-1.5106 7.93076,-2.7308 -0.11621,1.4138 -0.17431,3.0407 -0.1743,4.8805 l 0,12.8403 c -1e-5,1.6462 0.23239,2.8469 0.69721,3.6022"
         style="line-height:125%;font-family:LaudatioC;-inkscape-font-specification:LaudatioC Bold"
         id="path3095" />
      <path
         d="m 169.81731,1077.9503 c -0.38735,-0.1162 -0.92963,-0.1743 -1.62682,-0.1743 l -1.04582,0 0,1.3654 c -1e-5,1.7043 0.20334,2.8372 0.61006,3.3989 -0.96836,-0.1162 -1.69462,-0.1743 -2.17878,-0.1743 -0.48418,0 -1.19107,0.058 -2.12068,0.1743 0.38733,-0.7166 0.581,-1.714 0.58101,-2.9922 -1e-5,-0.1937 -0.01,-0.4842 -0.0291,-0.8715 -1e-5,-0.3874 -1e-5,-0.6682 0,-0.8425 l -9.15087,0 c 0.0581,-0.7359 0.0872,-1.162 0.0872,-1.2782 0,-0.058 -0.0291,-0.4454 -0.0872,-1.162 0.75531,-1.5881 2.29498,-4.3479 4.61901,-8.2794 0.44543,-0.7553 1.11359,-1.8786 2.00448,-3.3698 0.29049,-0.4261 0.68752,-1.0942 1.19106,-2.0045 0.71657,0.1162 1.38473,0.1743 2.00448,0.1743 0.60036,0 1.50093,-0.1162 2.70169,-0.3486 -0.17432,0.9684 -0.26147,2.1691 -0.26146,3.6022 l 0,10.1386 1.16202,0 c 0.69719,0 1.21042,-0.1162 1.53967,-0.3486 -0.0581,0.9684 -0.0872,1.4816 -0.0871,1.5397 -2e-5,0.4454 0.029,0.9296 0.0871,1.4525 m -5.78103,-2.6726 0,-11.7945 c -2.61454,4.377 -4.76427,8.3084 -6.44918,11.7945 l 6.44918,0"
         style="line-height:125%;font-family:LaudatioC;-inkscape-font-specification:LaudatioC Bold"
         id="path3097" />
    </g>
    <path
       style="fill:none;stroke:#000000;stroke-width:1px;stroke-linecap:butt;stroke-linejoin:miter;stroke-opacity:1"
       d="m 237.17686,338.5574 -8.57143,-5.71428"
       id="path3690"
       inkscape:connector-curvature="0" />
  </g>
</svg>
